<mxfile host="Electron" modified="2023-12-19T02:38:47.113Z" agent="Mozilla/5.0 (Windows NT 10.0; Win64; x64) AppleWebKit/537.36 (KHTML, like Gecko) draw.io/22.1.2 Chrome/114.0.5735.289 Electron/25.9.4 Safari/537.36" etag="8JeYOEmD3cpN1QmKAG5K" version="22.1.2" type="device">
  <diagram name="Page-1" id="8qRdy7gwrqE1BO1tPQO9">
    <mxGraphModel dx="1036" dy="654" grid="1" gridSize="10" guides="1" tooltips="1" connect="1" arrows="1" fold="1" page="1" pageScale="1" pageWidth="850" pageHeight="1100" math="0" shadow="0">
      <root>
        <mxCell id="0" />
        <mxCell id="1" parent="0" />
        <mxCell id="WkAKEC9OUjDSDLNcrUkQ-1" value="" style="edgeStyle=orthogonalEdgeStyle;rounded=0;orthogonalLoop=1;jettySize=auto;html=1;" edge="1" parent="1" source="WkAKEC9OUjDSDLNcrUkQ-2" target="WkAKEC9OUjDSDLNcrUkQ-5">
          <mxGeometry relative="1" as="geometry" />
        </mxCell>
        <mxCell id="WkAKEC9OUjDSDLNcrUkQ-2" value="START" style="ellipse;whiteSpace=wrap;html=1;" vertex="1" parent="1">
          <mxGeometry x="365" y="60" width="120" height="80" as="geometry" />
        </mxCell>
        <mxCell id="WkAKEC9OUjDSDLNcrUkQ-3" value="&lt;br&gt;1-dən M-ədək ədədlər içərisində 21-ə bölünən ədədlərin ədədi ortasını tapan alqoritm" style="whiteSpace=wrap;html=1;aspect=fixed;" vertex="1" parent="1">
          <mxGeometry x="80" y="40" width="160" height="160" as="geometry" />
        </mxCell>
        <mxCell id="WkAKEC9OUjDSDLNcrUkQ-4" value="" style="edgeStyle=orthogonalEdgeStyle;rounded=0;orthogonalLoop=1;jettySize=auto;html=1;" edge="1" parent="1" source="WkAKEC9OUjDSDLNcrUkQ-5" target="WkAKEC9OUjDSDLNcrUkQ-7">
          <mxGeometry relative="1" as="geometry" />
        </mxCell>
        <mxCell id="WkAKEC9OUjDSDLNcrUkQ-5" value="M" style="shape=parallelogram;perimeter=parallelogramPerimeter;whiteSpace=wrap;html=1;fixedSize=1;" vertex="1" parent="1">
          <mxGeometry x="365" y="190" width="120" height="60" as="geometry" />
        </mxCell>
        <mxCell id="WkAKEC9OUjDSDLNcrUkQ-6" value="" style="edgeStyle=orthogonalEdgeStyle;rounded=0;orthogonalLoop=1;jettySize=auto;html=1;" edge="1" parent="1" source="WkAKEC9OUjDSDLNcrUkQ-7" target="WkAKEC9OUjDSDLNcrUkQ-10">
          <mxGeometry relative="1" as="geometry" />
        </mxCell>
        <mxCell id="WkAKEC9OUjDSDLNcrUkQ-7" value="SUM = 0&lt;br&gt;COUNT = 0" style="whiteSpace=wrap;html=1;" vertex="1" parent="1">
          <mxGeometry x="365" y="330" width="120" height="60" as="geometry" />
        </mxCell>
        <mxCell id="WkAKEC9OUjDSDLNcrUkQ-8" value="" style="edgeStyle=orthogonalEdgeStyle;rounded=0;orthogonalLoop=1;jettySize=auto;html=1;" edge="1" parent="1" source="WkAKEC9OUjDSDLNcrUkQ-10" target="WkAKEC9OUjDSDLNcrUkQ-13">
          <mxGeometry relative="1" as="geometry" />
        </mxCell>
        <mxCell id="WkAKEC9OUjDSDLNcrUkQ-9" value="" style="edgeStyle=orthogonalEdgeStyle;rounded=0;orthogonalLoop=1;jettySize=auto;html=1;" edge="1" parent="1" source="WkAKEC9OUjDSDLNcrUkQ-10" target="WkAKEC9OUjDSDLNcrUkQ-17">
          <mxGeometry relative="1" as="geometry" />
        </mxCell>
        <mxCell id="WkAKEC9OUjDSDLNcrUkQ-10" value="num = 1; num &amp;lt; M; num++" style="shape=hexagon;perimeter=hexagonPerimeter2;whiteSpace=wrap;html=1;fixedSize=1;" vertex="1" parent="1">
          <mxGeometry x="365" y="460" width="120" height="80" as="geometry" />
        </mxCell>
        <mxCell id="WkAKEC9OUjDSDLNcrUkQ-11" value="TRUE" style="edgeStyle=orthogonalEdgeStyle;rounded=0;orthogonalLoop=1;jettySize=auto;html=1;" edge="1" parent="1" source="WkAKEC9OUjDSDLNcrUkQ-13" target="WkAKEC9OUjDSDLNcrUkQ-15">
          <mxGeometry relative="1" as="geometry" />
        </mxCell>
        <mxCell id="WkAKEC9OUjDSDLNcrUkQ-12" value="FALSE" style="edgeStyle=orthogonalEdgeStyle;rounded=0;orthogonalLoop=1;jettySize=auto;html=1;entryX=1;entryY=0.5;entryDx=0;entryDy=0;" edge="1" parent="1" source="WkAKEC9OUjDSDLNcrUkQ-13" target="WkAKEC9OUjDSDLNcrUkQ-10">
          <mxGeometry relative="1" as="geometry">
            <Array as="points">
              <mxPoint x="540" y="630" />
              <mxPoint x="540" y="500" />
            </Array>
          </mxGeometry>
        </mxCell>
        <mxCell id="WkAKEC9OUjDSDLNcrUkQ-13" value="num % 21 == 0" style="rhombus;whiteSpace=wrap;html=1;" vertex="1" parent="1">
          <mxGeometry x="350" y="590" width="150" height="80" as="geometry" />
        </mxCell>
        <mxCell id="WkAKEC9OUjDSDLNcrUkQ-14" style="edgeStyle=orthogonalEdgeStyle;rounded=0;orthogonalLoop=1;jettySize=auto;html=1;entryX=1;entryY=0.5;entryDx=0;entryDy=0;" edge="1" parent="1" source="WkAKEC9OUjDSDLNcrUkQ-15" target="WkAKEC9OUjDSDLNcrUkQ-10">
          <mxGeometry relative="1" as="geometry">
            <mxPoint x="540" y="530" as="targetPoint" />
            <Array as="points">
              <mxPoint x="600" y="760" />
              <mxPoint x="600" y="500" />
            </Array>
          </mxGeometry>
        </mxCell>
        <mxCell id="WkAKEC9OUjDSDLNcrUkQ-15" value="SUM += num&lt;br&gt;COUNT++" style="whiteSpace=wrap;html=1;" vertex="1" parent="1">
          <mxGeometry x="366" y="730" width="120" height="60" as="geometry" />
        </mxCell>
        <mxCell id="WkAKEC9OUjDSDLNcrUkQ-16" value="" style="edgeStyle=orthogonalEdgeStyle;rounded=0;orthogonalLoop=1;jettySize=auto;html=1;" edge="1" parent="1" source="WkAKEC9OUjDSDLNcrUkQ-17" target="WkAKEC9OUjDSDLNcrUkQ-18">
          <mxGeometry relative="1" as="geometry" />
        </mxCell>
        <mxCell id="WkAKEC9OUjDSDLNcrUkQ-17" value="COUNT" style="shape=document;whiteSpace=wrap;html=1;boundedLbl=1;" vertex="1" parent="1">
          <mxGeometry x="165" y="460" width="120" height="80" as="geometry" />
        </mxCell>
        <mxCell id="WkAKEC9OUjDSDLNcrUkQ-18" value="END" style="ellipse;whiteSpace=wrap;html=1;" vertex="1" parent="1">
          <mxGeometry x="165" y="590" width="120" height="80" as="geometry" />
        </mxCell>
      </root>
    </mxGraphModel>
  </diagram>
</mxfile>
